<svg xmlns="http://www.w3.org/2000/svg" xmlns:xlink="http://www.w3.org/1999/xlink" viewBox="0 0 256.53 21.73"><defs><style>.cls-1{fill:#858585;}.cls-2{fill:#494949;}.cls-3{fill:#aaa;}.cls-4{fill:#414141;}.cls-5{fill:#a9a9a9;}.cls-6{fill:url(#linear-gradient);}.cls-7{fill:url(#linear-gradient-2);}.cls-8{fill:url(#linear-gradient-3);}.cls-9{fill:#363636;}.cls-10{fill:#dcdcdc;}.cls-11{fill:#1a1a1a;}.cls-12{fill:#949494;}.cls-13{fill:url(#radial-gradient);}.cls-14{fill:#1b1b1b;}.cls-15{fill:none;stroke:#000;stroke-miterlimit:10;stroke-width:0.21px;}.cls-16{fill:#515151;}.cls-17{fill:#4d4d4d;}.cls-18{fill:#353535;}.cls-19{fill:#707070;}.cls-20,.cls-21{fill:#fff;}.cls-20{fill-rule:evenodd;}</style><linearGradient id="linear-gradient" x1="208.25" y1="10.86" x2="215.32" y2="10.86" gradientUnits="userSpaceOnUse"><stop offset="0" stop-color="#3a3a3a"/><stop offset="1" stop-color="#828282"/></linearGradient><linearGradient id="linear-gradient-2" x1="192.41" y1="10.86" x2="199.47" y2="10.86" gradientUnits="userSpaceOnUse"><stop offset="0" stop-color="#262626"/><stop offset="1" stop-color="#434343"/></linearGradient><linearGradient id="linear-gradient-3" x1="200.33" y1="10.86" x2="207.39" y2="10.86" gradientUnits="userSpaceOnUse"><stop offset="0" stop-color="#202020"/><stop offset="1" stop-color="#575757"/></linearGradient><radialGradient id="radial-gradient" cx="130.93" cy="9.8" r="1.93" gradientUnits="userSpaceOnUse"><stop offset="0" stop-color="#f5f5f5"/><stop offset="1" stop-color="#949494"/></radialGradient></defs><title>foot_cd</title><g id="レイヤー_2" data-name="レイヤー 2"><g id="フッター"><path d="M49.72,20.6V19.29a.76.76,0,0,0-.8-.83.81.81,0,0,0-.73.37.76.76,0,0,0-.69-.37.71.71,0,0,0-.62.31v-.25h-.42V20.6h.42V19.4a.5.5,0,0,1,.53-.55c.3,0,.47.2.47.55v1.2h.42V19.4a.5.5,0,0,1,.52-.55c.31,0,.48.2.48.55v1.2Zm6.78-2.08h-.76v-.63h-.42v.63h-.44v.37h.44v1c0,.48.17.77.7.77a1.06,1.06,0,0,0,.57-.16l-.13-.37a.81.81,0,0,1-.4.11c-.23,0-.32-.13-.32-.34v-1h.76Zm3.86-.06a.66.66,0,0,0-.57.31v-.25h-.41V20.6h.42V19.43c0-.35.16-.57.46-.57a.72.72,0,0,1,.28.05l.14-.39a1,1,0,0,0-.32-.06Zm-5.84.22a1.55,1.55,0,0,0-.85-.22c-.52,0-.84.25-.84.67s.23.54.7.6l.21,0c.25,0,.38.13.38.24s-.18.27-.49.27a1.07,1.07,0,0,1-.69-.22l-.21.33a1.61,1.61,0,0,0,.9.27c.6,0,.93-.28.93-.68s-.25-.55-.71-.61l-.21,0c-.2,0-.37-.09-.37-.23s.16-.26.41-.26a1.36,1.36,0,0,1,.65.18Zm6.31.88a1,1,0,0,0,1.09,1.09,1.07,1.07,0,0,0,.75-.25l-.22-.33a.85.85,0,0,1-.54.19.65.65,0,0,1-.64-.7.66.66,0,0,1,.64-.71.91.91,0,0,1,.54.19l.22-.33a1.07,1.07,0,0,0-.75-.25,1,1,0,0,0-1.09,1.1Zm-2.92-1.1a1,1,0,0,0-1,1.09,1,1,0,0,0,1.06,1.1,1.27,1.27,0,0,0,.85-.29l-.22-.31a1,1,0,0,1-.61.22.62.62,0,0,1-.64-.54h1.56c0-.06,0-.12,0-.18a1,1,0,0,0-1-1.09Zm0,.39a.53.53,0,0,1,.55.53H57.32a.56.56,0,0,1,.58-.53Zm-5.63.71v-1h-.42v.25a.81.81,0,0,0-.67-.31,1.1,1.1,0,0,0,0,2.19.81.81,0,0,0,.67-.31v.26h.42Zm-1.68,0a.64.64,0,1,1,.64.7.64.64,0,0,1-.64-.7Zm16-1.1a.66.66,0,0,0-.57.31v-.25h-.41V20.6h.42V19.43c0-.35.16-.57.46-.57a.69.69,0,0,1,.28.05l.14-.39a1,1,0,0,0-.32-.06ZM70,20.29l.08,0,.07,0a.25.25,0,0,1,0,.07.24.24,0,0,1,0,.08.19.19,0,0,1,0,.08.16.16,0,0,1,0,.07l-.07,0-.08,0-.08,0-.07,0,0-.07a.19.19,0,0,1,0-.08.22.22,0,0,1,0-.08l0-.07.07,0Zm0,.37h.06a.29.29,0,0,0,.09-.09s0,0,0-.06,0,0,0-.06a.29.29,0,0,0-.09-.09h-.12l-.06,0,0,.05a.18.18,0,0,0,0,.12l0,.05.06,0Zm0-.26a.08.08,0,0,1,.06,0,.08.08,0,0,1,0,0s0,0,0,0a.05.05,0,0,1,0,0l.06.08h0L70,20.52h0v.08h0v-.2Zm0,0v0H70v0H70ZM65,19.56v-1h-.42v.25a.81.81,0,0,0-.67-.31,1.1,1.1,0,0,0,0,2.19.81.81,0,0,0,.67-.31v.26H65Zm-1.69,0a.65.65,0,0,1,.65-.71.71.71,0,1,1-.65.71Zm5.89,0V17.68h-.42v1.09a.83.83,0,0,0-.68-.31,1.1,1.1,0,0,0,0,2.19.83.83,0,0,0,.68-.31v.26h.42Zm-1.69,0a.65.65,0,1,1,.65.7A.65.65,0,0,1,67.55,19.56Z"/><rect class="cls-1" x="54.38" y="2.69" width="6.84" height="12.3"/><path class="cls-2" d="M54.81,8.84a7.81,7.81,0,0,1,3-6.15,7.82,7.82,0,1,0-4.83,14A7.77,7.77,0,0,0,57.8,15,7.8,7.8,0,0,1,54.81,8.84Z"/><path class="cls-3" d="M69.71,13.69v-.25h.1v-.06h-.26v.06h.1v.25Zm.5,0v-.31h-.08l-.09.21L70,13.38h-.08v.31h.06v-.23l.08.2h.06l.09-.2v.23Z"/><path class="cls-3" d="M70.46,8.84A7.83,7.83,0,0,1,57.8,15a7.82,7.82,0,0,0,0-12.3A7.83,7.83,0,0,1,70.46,8.84Z"/><polygon class="cls-4" points="16.35 5.95 13.61 5.95 11.91 15.88 14.65 15.88 16.35 5.95"/><polygon class="cls-4" points="9.6 5.95 6.94 12.66 5.41 6.93 2.75 6.58 5.26 15.88 5.66 15.88 7.8 15.88 8.19 15.88 12.43 5.95 9.6 5.95"/><path class="cls-4" d="M16.77,13.36l-.42,2a17.13,17.13,0,0,0,3,.53c1.34,0,3.84-.32,4.53-2.28s-.56-2.92-1.74-3.57-2.1-1-1.77-1.69,2.68-.78,3.76-.08l.37-2a6.65,6.65,0,0,0-3.26-.39c-2.07.23-3.47,1.22-3.67,2.38a2.38,2.38,0,0,0,1.31,2.82c1.35.8,2.42,1.1,2.36,1.9s-1.45,1-2.61.85A9.35,9.35,0,0,1,16.77,13.36Z"/><path class="cls-4" d="M31.2,15.88h2.47L31.52,6H29.27a1.27,1.27,0,0,0-.92.36,5.6,5.6,0,0,0-.74,1.34l-3.49,8.23h2.74l.57-1.49h3.46Zm-3-3.47,1.46-3.77.8,3.77Z"/><path class="cls-5" d="M0,6H4.05a1.84,1.84,0,0,1,1.39.58,42.46,42.46,0,0,1,1.1,4.61A10.31,10.31,0,0,0,0,6Z"/><path class="cls-6" d="M209.65,12.72h1.66l.2,0a.76.76,0,0,0,0-1.47l-.2,0h-1.66Zm1.47-10.45a2.86,2.86,0,0,0-2.87,2.87v3h4.34c.91.05,1.59.52,1.59,1.34a1.35,1.35,0,0,1-1.3,1.31v0c.92.07,1.64.58,1.64,1.38s-.78,1.44-1.82,1.44h-4.45v5.83h4.2a2.87,2.87,0,0,0,2.87-2.86V2.27Zm.78,7.39a.68.68,0,0,0-.58-.68l-.17,0h-1.5v1.4h1.67A.69.69,0,0,0,211.9,9.66Z"/><path class="cls-7" d="M195.27,2.27a2.86,2.86,0,0,0-2.86,2.87v7.07a5.67,5.67,0,0,0,2.47.64,1.38,1.38,0,0,0,1.54-1.42V8.11h2.46v3.32c0,1.3-.8,2.35-3.53,2.35a12.13,12.13,0,0,1-2.94-.36v6h4.2a2.86,2.86,0,0,0,2.86-2.86V2.27Z"/><path class="cls-8" d="M203.19,2.27a2.87,2.87,0,0,0-2.86,2.87V8.89c.73-.63,2-1,4-.93a12.59,12.59,0,0,1,2.24.35V9.52a5.46,5.46,0,0,0-2.16-.63c-1.55-.12-2.48.63-2.48,2s.93,2.1,2.48,2a5.75,5.75,0,0,0,2.16-.63v1.21a13.08,13.08,0,0,1-2.24.34c-2,.09-3.29-.3-4-.92v6.61h4.2a2.86,2.86,0,0,0,2.86-2.86V2.27Z"/><path class="cls-9" d="M171.27,12.79a5.34,5.34,0,1,0,0-10.68h-6.74a5.34,5.34,0,0,0,0,10.68Z"/><path class="cls-10" d="M164.53,12.67a5.22,5.22,0,1,0-5.22-5.22,5.22,5.22,0,0,0,5.22,5.22"/><path class="cls-9" d="M163.48,4.44a3.19,3.19,0,0,0,0,6Z"/><path class="cls-9" d="M167.72,7.45a3.2,3.2,0,0,1-2.15,3v-6a3.18,3.18,0,0,1,2.14,3"/><path class="cls-11" d="M161.43,14.89s0-.09.22-.09a.66.66,0,0,1,.72.76,1.2,1.2,0,0,1-1.18,1.26c-.17,0-.25,0-.25-.14a2.38,2.38,0,0,1,.08-.31Zm-.62-.14c.17,0,.26,0,.26.14a1.09,1.09,0,0,1,0,.22l-.42,1.5c-.06.21-.11.22-.27.26v.05h.86a1.39,1.39,0,0,0,1.55-1.32.9.9,0,0,0-1-.91h-.94Z"/><path class="cls-11" d="M163.45,16.57c-.13.2-.28.39-.47.39s-.16-.15-.16-.21.27-1,.27-1.11,0-.08-.21-.08V15.5a5.42,5.42,0,0,0,.54-.08h0l-.3,1.1c0,.05,0,.19,0,.23a.05.05,0,0,0,0,.05s.14-.07.28-.27Zm-.06-1.52a.16.16,0,0,1-.17-.17.17.17,0,0,1,.16-.19.18.18,0,0,1,.17.19.17.17,0,0,1-.16.17"/><path class="cls-11" d="M165,16.57c-.16.22-.28.38-.47.38s-.16-.1-.16-.2.25-.91.25-1.05,0-.11-.09-.11-.37.29-.5.48a3,3,0,0,0-.34.85h-.25c.1-.38.33-1.18.33-1.25s0-.09-.21-.09v-.06l.55-.1h0l-.22.72h0c.16-.25.47-.72.75-.72s.24.08.24.22-.28,1-.28,1.09a.06.06,0,0,0,.06.06c.07,0,.15-.11.28-.27Z"/><path class="cls-11" d="M165.48,16.06c.13-.3.36-.56.55-.56s.11.06.11.13,0,.44-.72.58Zm.7.49a.8.8,0,0,1-.5.25.29.29,0,0,1-.31-.31.75.75,0,0,1,0-.2l.09,0c.56-.08.88-.35.88-.62s-.11-.23-.28-.23a1.18,1.18,0,0,0-1,1.06.44.44,0,0,0,.47.48,1,1,0,0,0,.68-.37Z"/><path class="cls-11" d="M166.39,16.92l.28-1a2.09,2.09,0,0,0,.05-.28c0-.05,0-.1-.12-.1l-.11,0v-.06l.52-.09h0l-.17.68h0l0-.07c.12-.22.38-.62.59-.62a.15.15,0,0,1,.16.16c0,.18-.12.18-.16.18s-.09-.12-.17-.12-.31.38-.34.43a4.15,4.15,0,0,0-.32.85Z"/><path class="cls-11" d="M167.47,16.42c0,.15.08.47.35.47a.26.26,0,0,0,.25-.28c0-.23-.41-.55-.41-.82a.37.37,0,0,1,.41-.37c.16,0,.22.05.33.05a.09.09,0,0,0,.09-.06h0l-.07.48h-.05c0-.2-.1-.39-.32-.39a.17.17,0,0,0-.19.19c0,.22.42.52.42.81a.46.46,0,0,1-.51.46c-.1,0-.24-.07-.34-.07s-.06,0-.08.07h-.05l.06-.54Z"/><path class="cls-11" d="M171.36,15.32a.53.53,0,0,0-.53-.55c-.68,0-1,.83-1,1.33s.19.73.6.73a1.09,1.09,0,0,0,.78-.4l.06,0a1.19,1.19,0,0,1-.93.51.86.86,0,0,1-.89-.92,1.47,1.47,0,0,1,1.38-1.41,3.78,3.78,0,0,1,.54.08c.1,0,.12,0,.13-.08h.08l-.13.68Z"/><path class="cls-11" d="M172,16.53c-.17.26-.3.43-.52.43s-.16-.12-.16-.21.5-1.85.5-1.93-.15-.08-.23-.08v-.06l.53-.09v0l-.51,2a.9.9,0,0,0,0,.16s0,.07.05.07.15-.09.32-.31Z"/><path class="cls-11" d="M173.56,16.55c-.21.31-.3.4-.47.4a.16.16,0,0,1-.17-.18,4.83,4.83,0,0,1,.15-.62h0c-.23.38-.48.81-.79.81-.12,0-.19-.05-.19-.2s.26-1,.26-1.1-.06-.1-.2-.1v-.05a4.54,4.54,0,0,0,.51-.09h0l-.31,1.24c0,.05,0,.12.07.12s.36-.32.48-.5a3.81,3.81,0,0,0,.37-.83h.26l-.27,1a1,1,0,0,0-.07.26s0,.06,0,.06.16-.12.28-.27Z"/><path class="cls-11" d="M174.8,15.87c0,.29-.33,1-.79,1-.16,0-.16-.09-.16-.11,0-.36.32-1.19.7-1.19a.26.26,0,0,1,.25.29m-1-1.14c.2,0,.22,0,.22.1a2,2,0,0,1,0,.23l-.47,1.7v0c0,.07.27.18.45.18a1.24,1.24,0,0,0,1.09-1.13.39.39,0,0,0-.41-.41c-.31,0-.52.31-.63.49h0c.12-.39.27-1,.35-1.3l0,0a5.06,5.06,0,0,1-.52.08Z"/><path class="cls-11" d="M159.71,19.52c.17,0,.22,0,.27-.25l.42-1.51a.86.86,0,0,0,0-.21c0-.12-.09-.13-.24-.15v0H161v0c-.16,0-.22,0-.28.26l-.41,1.51a.46.46,0,0,0,0,.21c0,.11.08.12.23.14v.05h-.83Z"/><path class="cls-11" d="M162.18,19.22c-.17.23-.29.39-.48.39s-.16-.11-.16-.21.25-.91.25-1,0-.11-.08-.11-.38.29-.5.48a2.56,2.56,0,0,0-.34.84h-.26c.11-.38.33-1.18.33-1.25s0-.09-.21-.09v-.05l.55-.11h0l-.22.71h0c.16-.26.47-.73.75-.73a.21.21,0,0,1,.24.23c0,.14-.27,1-.27,1.09a.06.06,0,0,0,0,.06c.07,0,.15-.11.28-.27Z"/><path class="cls-11" d="M163.09,18.22h-.29l-.3,1.14v0a.06.06,0,0,0,.05.06c.07,0,.19-.16.28-.27l0,0c-.17.26-.31.41-.48.41s-.17,0-.17-.13.07-.26.08-.32l.25-.94h-.26a.09.09,0,0,1,0,0s.12-.05.17-.08a1.67,1.67,0,0,0,.38-.33s0-.05.05-.05,0,0,0,.06l-.1.35h.28Z"/><path class="cls-11" d="M163.39,18.72c.13-.31.36-.57.54-.57s.12.06.12.14,0,.43-.72.58Zm.7.48a.82.82,0,0,1-.49.26.29.29,0,0,1-.32-.31.76.76,0,0,1,0-.21h.1c.55-.08.87-.36.87-.63s-.11-.23-.28-.23a1.18,1.18,0,0,0-1,1.06.44.44,0,0,0,.47.48,1,1,0,0,0,.69-.37Z"/><path class="cls-11" d="M164.37,19.57l.27-1a1.35,1.35,0,0,0,.06-.27s0-.11-.12-.11l-.12,0v-.06c.18,0,.38-.06.53-.09h0l-.16.68h0l0-.07c.11-.23.37-.63.59-.63a.15.15,0,0,1,.16.17c0,.18-.12.18-.16.18s-.09-.13-.18-.13-.31.38-.33.43a4.4,4.4,0,0,0-.32.85Z"/><path class="cls-11" d="M167,19.22c-.17.23-.29.39-.48.39s-.16-.11-.16-.21.25-.91.25-1,0-.11-.08-.11-.38.29-.5.48a2.56,2.56,0,0,0-.34.84h-.26c.11-.38.33-1.18.33-1.25s0-.09-.21-.09v-.05l.55-.11h0l-.22.71h0c.16-.26.47-.73.75-.73a.21.21,0,0,1,.24.23c0,.14-.27,1-.27,1.09a.06.06,0,0,0,0,.06c.07,0,.15-.11.28-.27Z"/><path class="cls-11" d="M167.25,19.2c0-.3.31-1.05.71-1.05.09,0,.19.06.19.23,0,.33-.33,1.07-.7,1.07-.09,0-.2-.07-.2-.25m1.24,0c-.16.15-.22.24-.28.24s0,0,0-.05.31-1.27.32-1.31h0l-.21,0h0l0,.15h0a.26.26,0,0,0-.27-.19,1.24,1.24,0,0,0-1,1.14.34.34,0,0,0,.35.4c.21,0,.39-.1.67-.51h0a1.71,1.71,0,0,0-.07.36c0,.06,0,.15.14.15s.26-.12.47-.38Z"/><path class="cls-11" d="M169.5,18.22h-.29l-.3,1.14v0a.06.06,0,0,0,.05.06c.07,0,.19-.16.28-.27l0,0c-.17.26-.31.41-.48.41s-.17,0-.17-.13.07-.26.08-.32l.25-.94h-.25a0,0,0,0,1,0,0s.12-.05.18-.08a1.87,1.87,0,0,0,.37-.33s0-.05.06-.05,0,0,0,.06l-.1.35h.28Z"/><path class="cls-11" d="M170.15,19.23c-.13.19-.28.38-.47.38s-.16-.15-.16-.21.27-1,.27-1.1,0-.09-.22-.09v-.05a5.25,5.25,0,0,0,.55-.09h0l-.3,1.1c0,.05-.06.18-.06.22a.06.06,0,0,0,.06.05s.14-.07.28-.26Zm-.07-1.52a.18.18,0,0,1,0-.36.18.18,0,0,1,.17.18.18.18,0,0,1-.17.18"/><path class="cls-11" d="M171.27,18.14c.16,0,.24.15.24.33,0,.37-.27,1.07-.66,1.07-.17,0-.27-.12-.27-.31,0-.41.31-1.09.69-1.09m0-.07a1.13,1.13,0,0,0-1,1.05.45.45,0,0,0,.51.49,1.15,1.15,0,0,0,1-1,.46.46,0,0,0-.5-.51"/><path class="cls-11" d="M173.28,19.22c-.17.23-.29.39-.48.39s-.16-.11-.16-.21.25-.91.25-1,0-.11-.08-.11-.38.29-.5.48a2.56,2.56,0,0,0-.34.84h-.26c.11-.38.34-1.18.34-1.25s0-.09-.22-.09v-.05l.55-.11h0l-.22.71h0c.16-.26.47-.73.75-.73a.21.21,0,0,1,.24.23c0,.14-.27,1-.27,1.09a.06.06,0,0,0,0,.06c.07,0,.15-.11.28-.27Z"/><path class="cls-11" d="M173.61,19.2c0-.3.31-1.05.7-1.05.1,0,.2.06.2.23,0,.33-.34,1.07-.7,1.07-.09,0-.2-.07-.2-.25m1.24,0c-.16.15-.23.24-.28.24s0,0,0-.05.31-1.27.32-1.31h0l-.21,0h0l0,.15h0a.26.26,0,0,0-.27-.19,1.24,1.24,0,0,0-1,1.14.34.34,0,0,0,.35.4c.21,0,.39-.1.67-.51h0a1.22,1.22,0,0,0-.07.36c0,.06,0,.15.14.15s.26-.12.47-.38Z"/><path class="cls-11" d="M175.62,19.19c-.18.26-.31.42-.52.42s-.16-.11-.16-.21.49-1.85.49-1.92-.14-.09-.23-.09v-.05a4.89,4.89,0,0,0,.53-.09l0,0-.51,2a.75.75,0,0,0,0,.16s0,.07.05.07.16-.1.33-.32Z"/><path class="cls-11" d="M176.1,17.32h0s.06,0,.06.07,0,.08-.06.08h0Zm-.1,0s0,0,0,0v.21s0,0,0,0h.14s0,0,0,0v-.09h0c.05.08.07.14.1.14h0l-.06-.07,0-.06a.11.11,0,0,0,.07-.09c0-.06-.05-.08-.1-.08H176Zm.43.15a.29.29,0,0,0-.29-.29.29.29,0,1,0,0,.58.29.29,0,0,0,.29-.29m-.05,0a.25.25,0,0,1-.24.25.25.25,0,0,1-.24-.25.25.25,0,0,1,.24-.26.25.25,0,0,1,.24.26"/><path class="cls-12" d="M142.92,12S136,16.86,123.4,19h19.52"/><path class="cls-13" d="M129,9.77a1.89,1.89,0,0,0,2,1.93,1.91,1.91,0,1,0-2-1.93"/><path class="cls-14" d="M119.86,8h-1v3.66h1a1.91,1.91,0,0,0,1.31-.42,1.84,1.84,0,0,0,.66-1.41,1.81,1.81,0,0,0-2-1.83m.83,2.75a1.34,1.34,0,0,1-1,.29h-.19V8.58h.19a1.27,1.27,0,0,1,1,.3,1.22,1.22,0,0,1,.4.91,1.25,1.25,0,0,1-.4.92"/><rect class="cls-14" x="122.15" y="7.96" width="0.71" height="3.66"/><path class="cls-14" d="M124.61,9.36c-.43-.15-.55-.26-.55-.46s.22-.4.53-.4a.78.78,0,0,1,.58.29l.37-.48a1.62,1.62,0,0,0-1.08-.41,1.08,1.08,0,0,0-1.14,1c0,.5.23.76.9,1a4.07,4.07,0,0,1,.5.21.44.44,0,0,1,.21.38.53.53,0,0,1-.56.52.84.84,0,0,1-.77-.49l-.46.44a1.41,1.41,0,0,0,1.26.7,1.18,1.18,0,0,0,1.26-1.2c0-.59-.24-.85-1-1.15"/><path class="cls-14" d="M125.89,9.79a1.89,1.89,0,0,0,1.93,1.91,2,2,0,0,0,.89-.21v-.84a1.14,1.14,0,0,1-.86.4,1.19,1.19,0,0,1-1.23-1.26,1.22,1.22,0,0,1,1.2-1.26,1.18,1.18,0,0,1,.89.41V8.1a1.79,1.79,0,0,0-.88-.22,1.92,1.92,0,0,0-1.94,1.91"/><polyline class="cls-14" points="134.5 10.42 133.52 7.96 132.74 7.96 134.29 11.71 134.67 11.71 136.26 7.96 135.49 7.96"/><polyline class="cls-14" points="136.58 11.62 138.6 11.62 138.6 11 137.29 11 137.29 10.01 138.55 10.01 138.55 9.39 137.29 9.39 137.29 8.58 138.6 8.58 138.6 7.96 136.58 7.96"/><path class="cls-14" d="M141.43,9c0-.68-.47-1.08-1.29-1.08h-1.06v3.66h.71V10.15h.09l1,1.47h.88l-1.15-1.54a1,1,0,0,0,.83-1m-1.43.6h-.21V8.54H140c.45,0,.69.18.69.54s-.24.56-.7.56"/><polyline class="cls-14" points="141.57 8.41 141.51 8.41 141.51 8 141.41 8 141.41 7.95 141.68 7.95 141.68 8 141.57 8"/><polyline class="cls-14" points="141.8 8.11 141.8 8.11 141.75 8.41 141.69 8.41 141.78 7.93 141.94 8.29 142.09 7.93 142.19 8.41 142.13 8.41 142.07 8.11 141.94 8.42"/><rect class="cls-15" x="117.63" y="2.69" width="25.29" height="16.35"/><path class="cls-16" d="M105.22,15.29h-1.65v-.37a.66.66,0,0,1-.58.37H97.75v-.68a.22.22,0,0,0-.23-.21h-.18v.89H96V14.22a1.27,1.27,0,0,1-.79.28h-.57v.79H92.83l-.46-.53-.5.53H88.78V12h3.1l.49.55.48-.55h2.39a1.21,1.21,0,0,1,.79.28V12h2a1.54,1.54,0,0,1,.72.15V12h2.6v.26a.6.6,0,0,1,.51-.26h1.79v.21a.57.57,0,0,1,.46-.21h1.7V0H84.18V9.75l1-2.12h1.38l.48,1v-1h1.6l.5,1.11.51-1.11h5.82a1.55,1.55,0,0,1,.88.25V7.63h1.09V8a.79.79,0,0,1,.66-.37h2.74l.42.9v-.9h1.42l.6.84V7.63h1.46v3.26h-1.58l-.54-.78v.78h-2l-.23-.49h-.64l-.23.49H98.1a.8.8,0,0,1-.66-.29v.29h-2.3v-.67a.22.22,0,0,0-.22-.22h-.18v.89h-4.8v-.32l-.2.32H88.51l-.19-.32v.32h-2l-.15-.37h-.68l-.16.38H84.18V21.73h21.68V15A1.07,1.07,0,0,1,105.22,15.29Z"/><path class="cls-16" d="M90.25,8.74v1.83h.59V8h-1l-.72,1.57L88.4,8h-1v2.3L86.27,8h-.79l-1.2,2.55H85l.23-.54H86.5l.25.54H88V8.74l.85,1.83h.55Zm-4.83.81.41-1,.45,1Z"/><polygon class="cls-16" points="93.33 10.05 91.98 10.05 91.98 9.55 93.33 9.55 93.33 9.03 91.98 9.03 91.98 8.55 93.33 8.55 93.33 8.02 91.39 8.02 91.39 10.57 93.33 10.57 93.33 10.05"/><polygon class="cls-16" points="99.12 14.97 101.05 14.97 101.05 14.44 99.71 14.44 99.71 13.95 101.05 13.95 101.05 13.42 99.71 13.42 99.71 12.94 101.05 12.94 101.05 12.42 99.12 12.42 99.12 14.97"/><path class="cls-16" d="M96.19,8.8a.8.8,0,0,0-.9-.78h-1.5v2.55h.59V9.65h.7a.39.39,0,0,1,.39.39v.53h.64V9.85a.45.45,0,0,0-.32-.39A.77.77,0,0,0,96.19,8.8Zm-1,.33h-.86V8.55h.86a.29.29,0,1,1,0,.58Z"/><path class="cls-16" d="M98.8,13.19c0-.43-.32-.77-.91-.77h-1.5V15H97v-.92h.71a.38.38,0,0,1,.38.38V15h.65v-.73a.46.46,0,0,0-.32-.39A.75.75,0,0,0,98.8,13.19Zm-1,.33H97v-.58h.86a.29.29,0,1,1,0,.58Z"/><rect class="cls-16" x="96.53" y="8.02" width="0.59" height="2.55"/><path class="cls-16" d="M98.53,10.57h.72l.23-.54h1.28l.25.54h1.24V8.77l1.25,1.8h.78V8h-.59V9.75L102.46,8h-.8v2.29L100.53,8h-.79l-.94,2h-.23c-.31,0-.54-.3-.54-.73s.23-.73.54-.73h.64V8h-.68c-.79,0-1.09.3-1.09,1.28S97.74,10.57,98.53,10.57Zm1.56-2,.45,1h-.86Z"/><path class="cls-16" d="M95.24,12.42H93.11l-.72.81-.7-.81H89.25V15h2.4l.75-.85.75.85h1.14v-.86h.95a.85.85,0,1,0,0-1.69Zm-3.92,2H89.84V14h1.25v-.53H89.84v-.48h1.52l.64.73Zm1.46-.76.92-1v2.11Zm2.37-.1h-.86v-.64h.86a.33.33,0,0,1,.32.32A.32.32,0,0,1,95.15,13.58Z"/><path class="cls-16" d="M103,13.42h-.62a.24.24,0,1,1,0-.48h1.1v-.52h-1.41c-.29,0-.63.12-.63.76s.34.66.63.66h.73a.3.3,0,0,1,.29.3.29.29,0,0,1-.29.3h-1.36V15h1.48c.29,0,.71-.13.71-.83S103.27,13.42,103,13.42Z"/><path class="cls-16" d="M105.38,13.42h-.61a.24.24,0,1,1,0-.48h1.09v-.52h-1.41c-.29,0-.63.12-.63.76s.34.66.63.66h.73a.3.3,0,0,1,.29.3.29.29,0,0,1-.29.3h-1.36V15h1.48c.29,0,.71-.13.71-.83S105.67,13.42,105.38,13.42Z"/><path class="cls-17" d="M234.68,2.32h6.78A1.32,1.32,0,0,1,242.78,4l-3.16,13.55a2.3,2.3,0,0,1-2.12,1.72h-6.77a1.32,1.32,0,0,1-1.32-1.72L232.57,4a2.3,2.3,0,0,1,2.11-1.72"/><path class="cls-18" d="M240.9,2.32h6.78A1.32,1.32,0,0,1,249,4l-3.16,13.55a2.3,2.3,0,0,1-2.12,1.72h-6.78a1.32,1.32,0,0,1-1.31-1.72L238.78,4a2.32,2.32,0,0,1,2.12-1.72"/><path class="cls-19" d="M248.39,2.32h6.78A1.31,1.31,0,0,1,256.48,4l-3.15,13.55a2.31,2.31,0,0,1-2.12,1.72h-6.78a1.31,1.31,0,0,1-1.31-1.72L246.27,4a2.3,2.3,0,0,1,2.12-1.72"/><path class="cls-20" d="M247.35,15.07H248l.15-.62h-.64m.25-1.08-.17.73a2.56,2.56,0,0,1,.36-.17,3.32,3.32,0,0,1,.33,0l.12-.51Zm.24-1-.16.7a2.43,2.43,0,0,1,.36-.14,1.69,1.69,0,0,1,.33-.05l.11-.51Zm1.42,0-.64,2.74H249l-.13.56h-.22l0,.18h-.78l0-.18h-1.6l.13-.52h.16l.65-2.78.13-.56h.8l-.06.29a1.25,1.25,0,0,1,.4-.21c.2-.05,1.36-.07,1.36-.07l-.13.55Z"/><path class="cls-20" d="M249.86,11.77h.85v.32l.14.08H251l-.14.52h-.46c-.4,0-.55-.14-.54-.33"/><path class="cls-20" d="M250,14.27h-.82l.11-.47h.93l.11-.43h-.92l.12-.53h2.56l-.12.53h-.86l-.1.43h.85l-.1.47h-.94l-.15.2h.38l.13.58,0,.13.2,0h.11l-.13.57h-.5l-.21-.08-.17-.2-.13-.59-.38.58a.67.67,0,0,1-.6.32h-.6l.12-.51h.23l.16,0,.12-.1"/><path class="cls-20" d="M241,13h2.16l-.13.52h-.86l-.11.44h.88l-.13.53h-.88l-.17.71.3.09.44,0-.14.58h-1l-.22,0-.17-.11a.24.24,0,0,1-.07-.23l.23-.95h-.49l.13-.54h.49l.11-.44h-.5"/><path class="cls-20" d="M242.38,12.06h.88l-.13.53h-1.21l-.12.12-.15.07a.85.85,0,0,1-.39.1h-.39l.13-.52h.11l.2,0,.12-.16.2-.41h.88"/><path class="cls-20" d="M244.13,12.94a1.3,1.3,0,0,1,.64-.29h.68l.07-.3h-1.24m1,.83h-1.23l-.06.25h1.07a.32.32,0,0,1,.16,0Zm-1.68-1.41h.75l-.09.39a2.23,2.23,0,0,1,.39-.26,4.43,4.43,0,0,1,.54-.12h1.22l-.33,1.39a1.53,1.53,0,0,1-.17.46l-.2.19-.27.09-.38,0h-1.18L243.65,15l0,.19.12.06.51-.05-.14.6h-1l-.25,0-.15-.17.06-.3Z"/><path class="cls-20" d="M246,14l0,.34-.12.25a.52.52,0,0,1-.4.14l-.42,0,0,.37.05.12.06,0h.13l.4,0-.13.55h-.46a1.57,1.57,0,0,1-.65-.07l-.1-.21L244.24,14H245v.3h.17l.13,0,0-.08.06-.24"/><path class="cls-21" d="M235.49,6.65c0,.12-.5,2.28-.5,2.28a1.59,1.59,0,0,1-.43,1,.72.72,0,0,1-.5.17.46.46,0,0,1-.52-.44v-.1l.09-.59s.5-2,.58-2.24v0a9.33,9.33,0,0,1-1.14,0l0,.14L232.54,9l0,.19-.08.61a.9.9,0,0,0,.1.46c.23.41.89.47,1.26.47a2.51,2.51,0,0,0,1.23-.29,1.83,1.83,0,0,0,.78-1.23l.06-.22s.51-2.06.6-2.32v0a8.78,8.78,0,0,1-1,0"/><path class="cls-21" d="M238.3,10.73a8.4,8.4,0,0,0-.86,0l0,0,.12-.46,0-.2a5.38,5.38,0,0,0,.15-.81c0-.07,0-.24-.16-.24l-.26.08c-.05.17-.14.65-.19.87-.1.46-.1.52-.15.75l0,0a8.57,8.57,0,0,0-.87,0l0,0c.07-.28.13-.55.2-.83a10.35,10.35,0,0,0,.25-1.41l0,0a8.6,8.6,0,0,0,.91-.15l0,0-.07.24.22-.13a1.44,1.44,0,0,1,.55-.12.45.45,0,0,1,.47.27c.09.19,0,.43-.08.9l-.05.23c-.11.52-.13.62-.19,1"/><path class="cls-21" d="M239.69,10.73h-.47l-.44,0v0h0a1.88,1.88,0,0,1,.11-.34A1.62,1.62,0,0,0,239,10c.06-.26.1-.44.13-.6s0-.29.06-.44h0V9c.21,0,.34,0,.47-.07l.48-.08h0v0c0,.16-.08.32-.11.48l-.12.49c-.07.34-.1.47-.12.56s0,.14-.06.32h0"/><path class="cls-21" d="M241.86,9.51a2,2,0,0,1-.2.56l-.26.17s-.19,0-.2-.26a2.06,2.06,0,0,1,.06-.39c.09-.39.19-.72.46-.72s.23.24.14.64m.89,0c.12-.53,0-.77-.09-.92a1,1,0,0,0-.82-.3,1.48,1.48,0,0,0-1,.36,1.67,1.67,0,0,0-.46.89c-.07.31-.16.89.37,1.1a1.6,1.6,0,0,0,1.65-.33,2,2,0,0,0,.37-.8"/><path class="cls-21" d="M251.62,8.36c-.43.08-.54.09-1,.15l0,0,0,.1a.61.61,0,0,0-.29-.25,1.13,1.13,0,0,0-1,.36,1.71,1.71,0,0,0-.46.88c-.07.31-.15.89.38,1.1a1,1,0,0,0,.47.08.72.72,0,0,0,.45-.21l0,.15,0,0h.91l0,0c.06-.35.11-.7.27-1.37.07-.33.15-.65.23-1m-1.36,1.72-.34.17s-.19,0-.2-.25a1.85,1.85,0,0,1,.06-.39c.09-.39.2-.72.47-.72s.26.17.23.45l0,.19-.09.37-.09.18"/><path class="cls-21" d="M245.08,10.73a8.4,8.4,0,0,0-.86,0l0,0c0-.15.08-.3.11-.46l.05-.2c.07-.32.14-.7.16-.81s0-.24-.17-.24l-.26.08c-.05.17-.14.65-.19.87-.1.46-.11.52-.15.75l0,0a8.79,8.79,0,0,0-.88,0v0c.06-.28.13-.55.2-.83a12.25,12.25,0,0,0,.25-1.41l0,0a8.36,8.36,0,0,0,.92-.15l0,0-.06.24.22-.13a1.44,1.44,0,0,1,.54-.12.46.46,0,0,1,.48.27c.08.19,0,.43-.08.9l-.05.23c-.11.52-.13.62-.19,1"/><path class="cls-21" d="M248,6.64h-.28c-.74,0-1,0-1.16,0l0,.16L246.3,8l-.66,2.73h1c0-.12.17-.85.17-.85l.14-.55.08-.08h.06a2.74,2.74,0,0,0,1.67-.36,1.8,1.8,0,0,0,.67-1.06,2.1,2.1,0,0,0,0-.37.78.78,0,0,0-.13-.47c-.25-.35-.75-.35-1.33-.36m.37,1.28a.88.88,0,0,1-.46.61,1.53,1.53,0,0,1-.65.1h-.15V8.57l.28-1.22V7.24h.11l.59,0a.49.49,0,0,1,.26.62"/><path class="cls-21" d="M240.06,8.63c.22-.15.25-.37.06-.49a.79.79,0,0,0-.75.08c-.23.16-.26.38-.07.49a.78.78,0,0,0,.76-.08"/><path class="cls-20" d="M254.46,8.36l0,0a7.84,7.84,0,0,1-.88.16l0,0v0h0c-.29.66-.27.52-.51,1V9.49l-.06-1.13,0,0a7.54,7.54,0,0,1-.86.16l0,0v0h0a5.88,5.88,0,0,1,.09.62c0,.2,0,.4.07.6s.07.5.12,1c-.28.46-.34.63-.6,1h0l-.19.3-.07.06-.12,0h-.14l-.12.53h.53a.66.66,0,0,0,.61-.34l.32-.57"/></g></g></svg>